{
	"asset":{
		"version":"2.0",
		"generator":"Created using the official Cinema 4D glTF Exporter 1.000x284978"
	},
	"scenes":[{
		"nodes":[0]
	}],
	"nodes":[{
		"name":"lo",
		"translation":[0.0,
		0.0,
		0.0],
		"rotation":[0.0,
		0.0,
		0.0,
		-1.0],
		"scale":[1.0,
		1.0,
		1.0],
		"children":[1,
		2,
		5]
	},
	{
		"name":"挤压.3",
		"translation":[-0.000006355202458507847,
		-0.004703960847109556,
		-0.19139520823955537],
		"rotation":[0.0,
		-1.0,
		0.0,
		-6.123234262925839e-17],
		"scale":[1.0,
		1.0,
		1.0],
		"mesh":0
	},
	{
		"name":"挤压.1",
		"translation":[0.000012710404917015694,
		0.009407921694219113,
		0.12564559280872346],
		"rotation":[0.0,
		0.0,
		0.0,
		-1.0],
		"scale":[1.0,
		1.0,
		1.0],
		"children":[3,
		4]
	},
	{
		"name":"挤压.1-材质.2",
		"translation":[0.0,
		0.0,
		0.0],
		"rotation":[0.0,
		0.0,
		0.0,
		-1.0],
		"scale":[1.0,
		1.0,
		1.0],
		"mesh":1
	},
	{
		"name":"挤压.1-材质.1",
		"translation":[0.0,
		0.0,
		0.0],
		"rotation":[0.0,
		0.0,
		0.0,
		-1.0],
		"scale":[1.0,
		1.0,
		1.0],
		"mesh":2
	},
	{
		"name":"挤压.2",
		"translation":[-0.000006355202458507847,
		-0.004703960847109556,
		0.06574961543083191],
		"rotation":[0.0,
		0.0,
		0.0,
		-1.0],
		"scale":[1.0,
		1.0,
		1.0],
		"mesh":3
	}],
	"meshes":[{
		"name":"挤压.3",
		"primitives":[{
			"attributes":{
				"POSITION":1,
				"NORMAL":2,
				"TEXCOORD_0":3
			},
			"indices":0,
			"material":0
		}]
	},
	{
		"name":"挤压.1-材质.2",
		"primitives":[{
			"attributes":{
				"POSITION":5,
				"NORMAL":6,
				"TEXCOORD_0":7
			},
			"indices":4,
			"material":1
		}]
	},
	{
		"name":"挤压.1-材质.1",
		"primitives":[{
			"attributes":{
				"POSITION":9,
				"NORMAL":10,
				"TEXCOORD_0":11
			},
			"indices":8,
			"material":2
		}]
	},
	{
		"name":"挤压.2",
		"primitives":[{
			"attributes":{
				"POSITION":13,
				"NORMAL":14,
				"TEXCOORD_0":15
			},
			"indices":12,
			"material":0
		}]
	}],
	"accessors":[{
		"count":894,
		"bufferView":0,
		"type":"SCALAR",
		"componentType":5123,
		"byteOffset":0,
		"min":[0],
		"max":[301]
	},
	{
		"count":302,
		"bufferView":1,
		"type":"VEC3",
		"componentType":5126,
		"byteOffset":0,
		"min":[-0.5352893471717835,
		-0.48826590180397036,
		2.1449547672218657e-16],
		"max":[0.5352893471717835,
		0.48826590180397036,
		2.9636856967304398e-16]
	},
	{
		"count":302,
		"bufferView":1,
		"type":"VEC3",
		"componentType":5126,
		"byteOffset":12,
		"min":[7.632175151111602e-17,
		-2.423988646277432e-20,
		1.0],
		"max":[7.66333868438117e-17,
		1.362097118187874e-19,
		1.0]
	},
	{
		"count":302,
		"bufferView":1,
		"type":"VEC2",
		"componentType":5126,
		"byteOffset":24,
		"min":[0.0,
		0.0],
		"max":[1.0,
		0.9121532440185547]
	},
	{
		"count":24,
		"bufferView":2,
		"type":"SCALAR",
		"componentType":5123,
		"byteOffset":0,
		"min":[0],
		"max":[11]
	},
	{
		"count":12,
		"bufferView":3,
		"type":"VEC3",
		"componentType":5126,
		"byteOffset":0,
		"min":[-1.0861254930496216,
		-0.940612256526947,
		-0.30674701929092409],
		"max":[1.0861254930496216,
		0.940612256526947,
		-0.07011512666940689]
	},
	{
		"count":12,
		"bufferView":3,
		"type":"VEC3",
		"componentType":5126,
		"byteOffset":12,
		"min":[0.0,
		0.0,
		-1.0],
		"max":[0.0,
		0.0,
		1.0]
	},
	{
		"count":12,
		"bufferView":3,
		"type":"VEC2",
		"componentType":5126,
		"byteOffset":24,
		"min":[0.03810511529445648,
		0.03299999237060547],
		"max":[0.9618948698043823,
		0.833025336265564]
	},
	{
		"count":180,
		"bufferView":4,
		"type":"SCALAR",
		"componentType":5123,
		"byteOffset":0,
		"min":[0],
		"max":[91]
	},
	{
		"count":92,
		"bufferView":5,
		"type":"VEC3",
		"componentType":5126,
		"byteOffset":0,
		"min":[-1.2765775918960572,
		-1.105548620223999,
		-0.37686213850975039],
		"max":[1.2765775918960572,
		1.105548620223999,
		-6.413630562106471e-15]
	},
	{
		"count":92,
		"bufferView":5,
		"type":"VEC3",
		"componentType":5126,
		"byteOffset":12,
		"min":[-1.0,
		-1.0,
		-0.9969375729560852],
		"max":[1.0,
		1.0,
		0.9969375729560852]
	},
	{
		"count":92,
		"bufferView":5,
		"type":"VEC2",
		"componentType":5126,
		"byteOffset":24,
		"min":[0.0,
		0.0],
		"max":[1.0,
		1.0]
	},
	{
		"count":894,
		"bufferView":6,
		"type":"SCALAR",
		"componentType":5123,
		"byteOffset":0,
		"min":[0],
		"max":[301]
	},
	{
		"count":302,
		"bufferView":7,
		"type":"VEC3",
		"componentType":5126,
		"byteOffset":0,
		"min":[-0.5352893471717835,
		-0.48826590180397036,
		-1.6548143877328364e-15],
		"max":[0.5352893471717835,
		0.48826590180397036,
		-1.5716895389046148e-15]
	},
	{
		"count":302,
		"bufferView":7,
		"type":"VEC3",
		"componentType":5126,
		"byteOffset":12,
		"min":[7.65226108161786e-17,
		-4.1296831815466226e-19,
		1.0],
		"max":[7.786468819898874e-17,
		4.0851679398941986e-19,
		1.0]
	},
	{
		"count":302,
		"bufferView":7,
		"type":"VEC2",
		"componentType":5126,
		"byteOffset":24,
		"min":[0.0,
		0.0],
		"max":[1.0,
		0.9121532440185547]
	}],
	"bufferViews":[{
		"buffer":0,
		"byteOffset":0,
		"byteLength":1788,
		"target":34963
	},
	{
		"buffer":0,
		"byteOffset":1788,
		"byteLength":9664,
		"target":34962,
		"byteStride":32
	},
	{
		"buffer":1,
		"byteOffset":0,
		"byteLength":48,
		"target":34963
	},
	{
		"buffer":1,
		"byteOffset":48,
		"byteLength":384,
		"target":34962,
		"byteStride":32
	},
	{
		"buffer":2,
		"byteOffset":0,
		"byteLength":360,
		"target":34963
	},
	{
		"buffer":2,
		"byteOffset":360,
		"byteLength":2944,
		"target":34962,
		"byteStride":32
	},
	{
		"buffer":3,
		"byteOffset":0,
		"byteLength":1788,
		"target":34963
	},
	{
		"buffer":3,
		"byteOffset":1788,
		"byteLength":9664,
		"target":34962,
		"byteStride":32
	}],
	"buffers":[{
		"uri":"data:application/octet-stream;base64,",
		"byteLength":11452
	},
	{
		"uri":"data:application/octet-stream;base64,",
		"byteLength":432
	},
	{
		"uri":"data:application/octet-stream;base64,",
		"byteLength":3304
	},
	{
		"uri":"data:application/octet-stream;base64,",
		"byteLength":11452
	}],
	"materials":[{
		"pbrMetallicRoughness":{
			"baseColorFactor":[0.0,
			1.0,
			0.7999999999999998,
			1.0],
			"metallicFactor":0.2,
			"roughnessFactor":0.0
		},
		"emissiveFactor":[0.0,
		0.0,
		0.0],
		"doubleSided":true,
		"alphaMode":"OPAQUE",
		"name":"材质"
	},
	{
		"pbrMetallicRoughness":{
			"baseColorFactor":[0.15000000000000003,
			0.475833333333333,
			1.0,
			1.0],
			"metallicFactor":0.6,
			"roughnessFactor":0.0
		},
		"emissiveFactor":[0.0,
		0.0,
		0.0],
		"doubleSided":true,
		"alphaMode":"OPAQUE",
		"name":"材质.2"
	},
	{
		"pbrMetallicRoughness":{
			"baseColorFactor":[1.0,
			0.7066666666666674,
			0.12,
			1.0],
			"metallicFactor":0.25,
			"roughnessFactor":0.0
		},
		"emissiveFactor":[0.0,
		0.0,
		0.0],
		"doubleSided":true,
		"alphaMode":"OPAQUE",
		"name":"材质.1"
	}]
}